<?xml version="1.0" standalone="no"?> <!DOCTYPE svg PUBLIC "-//W3C//DTD SVG 1.0//EN" "http://www.w3.org/TR/2001/REC-SVG-20010904/DTD/svg10.dtd" > <svg xmlns="http://www.w3.org/2000/svg" width="100%" height="100%">
<defs >
<font id="amaticbold" horiz-adv-x="512" ><font-face
    font-family="AmaticBold"
    units-per-em="2048"
    panose-1="2 0 8 3 0 0 0 0 0 0"
    ascent="2048"
    descent="-160"
    alphabetic="0" />
<missing-glyph horiz-adv-x="233" />
<glyph unicode=" " glyph-name="space" horiz-adv-x="233" />
<glyph unicode="!" glyph-name="exclam" horiz-adv-x="286" d="M210 26Q210 -46 109 -46Q86 -46 64 -25T41 32T66 96T128 125T187 96T210 26ZM182 543L184 446Q184 306 146 306Q125 306 108 356T90 482L98 821L88 1493Q88 1525 115 1548T169 1572T210 1558T225
1522Q225 1358 204 1032T182 543Z" />
<glyph unicode="&quot;" glyph-name="quotedbl" horiz-adv-x="359" d="M175 1193Q166 1193 156 1321T146 1531Q146 1551 165 1564T208 1578T241 1531Q238 1433 221 1313T182 1193H175ZM50 1525L51 1511Q51 1422 28 1308T-24 1193H-31Q-40 1193 -40 1531Q-40 1551
-27 1564T1 1578Q43 1578 50 1525Z" />
<glyph unicode="#" glyph-name="numbersign" horiz-adv-x="748" d="M570 698L591 699Q676 699 676 637H677Q676 586 599 586Q596 586 593 586L563 587Q558 516 542 390Q508 111 507 -39L472 -81Q401 -81 401 -37Q401 73 432 279T466 581Q419 585 324 585L274 582Q271
562 266 479T254 307Q247 220 236 128Q211 -79 163 -80Q142 -80 124 -68T105 -36Q105 210 176 576Q131 571 116 571Q31 571 31 637Q31 683 127 683L189 681Q208 790 220 948Q181 945 169 945Q72 945 72 1004V1014L102 1047L165 1046Q196 1046 228 1049Q232 1084
246 1174Q273 1349 273 1457L272 1494Q272 1527 282 1547T325 1567H340L363 1520Q363 1440 345 1287T326 1058Q344 1054 408 1054T505 1062Q530 1187 550 1334T579 1535Q603 1566 625 1566T664 1553T680 1525Q680 1445 645 1294T607 1067H673L716 1020Q709 992
698 976T662 959L595 962Q572 856 570 698ZM282 686Q290 685 351 685T463 691Q495 875 496 952Q461 960 405 960T314 954Q288 859 282 686Z" />
<glyph unicode="$" glyph-name="dollar" horiz-adv-x="519" d="M54 24Q54 79 100 79Q124 79 161 64T215 48T247 52Q242 214 225 774Q220 781 192 819T146 884T92 966Q56 1024 41 1060Q-1 1162 -1 1245T52 1410T202 1535Q202 1577 200 1603T208 1651Q214 1663 225
1663Q234 1663 246 1655Q272 1637 272 1586V1559Q335 1574 384 1574T469 1554T518 1500L483 1456Q462 1456 418 1462T347 1471Q342 1471 337 1471Q312 1471 276 1464L305 822Q464 614 497 478Q513 412 513 325T472 138T349 -10V-155Q349 -162 349 -168Q349 -258
290 -258Q254 -258 254 -195V-179L250 -43Q238 -45 212 -45T153 -40T87 -18T54 24ZM220 937Q216 1045 205 1433Q152 1400 125 1350Q98 1302 98 1238Q98 1114 220 937ZM337 113Q376 161 397 229T419 345Q419 480 313 647L337 113Z" />
<glyph unicode="%" glyph-name="percent" horiz-adv-x="1077" d="M940 467Q940 538 926 605Q882 711 832 733Q773 732 755 570Q741 447 741 385T765 219T816 116Q940 116 940 386V467ZM222 1449Q197 1449 171 1332T145 1179T146 1116T150 1043T159 958T176 881Q208
813 238 800Q350 800 350 1092Q350 1449 222 1449ZM657 1438L658 1437Q659 1469 673 1502T712 1536T753 1523T769 1487Q770 1344 588 662Q504 345 491 274T470 167Q460 131 446 87Q415 -6 367 -8Q328 14 328 64T353 245T426 566Q474 755 508 887Q608 1270 657 1438ZM927
38Q879 2 826 2T742 31T693 102Q675 146 663 198Q643 286 643 346T643 429T646 499T653 578T667 653T691 726T726 783Q766 838 838 838Q925 838 970 774Q1015 709 1025 648Q1040 556 1040 478V378Q1040 246 998 136Q975 76 927 38ZM444 1140L443 1141Q428 1100
426 984Q424 870 412 816Q386 700 241 700Q168 700 128 754Q83 815 73 869T57 955T49 1033Q46 1102 46 1154T54 1264T79 1391T132 1506T215 1553Q444 1553 444 1147V1140Z" />
<glyph unicode="&amp;" glyph-name="ampersand" horiz-adv-x="903" d="M309 1291Q309 1291 312 1016V993Q364 1058 413 1148T462 1283T429 1389T364 1450T309 1400V1291ZM571 696Q727 696 803 722Q861 710 861 668Q861 612 754 612L748 613H697Q697 286 613 175Q674
112 743 112L826 118L864 87Q864 46 836 33T760 19Q668 19 562 96Q447 18 350 18T185 70T83 200T48 341T53 455T64 540T86 625T112 698Q120 721 148 780Q184 854 230 945L216 1226V1396Q216 1471 252 1507T354 1544T487 1489T554 1360Q554 1237 513 1139T388 944Q384
936 369 915Q336 869 336 846Q336 757 411 526T541 238Q605 384 605 600V609Q590 609 586 615T581 623T576 633T571 644V696ZM251 789Q143 619 143 389Q143 285 189 199Q240 103 349 103Q382 103 430 120T499 158Q310 431 251 789Z" />
<glyph unicode="&apos;" glyph-name="quotesingle" horiz-adv-x="359" d="M256 1525L257 1511Q257 1422 234 1308T182 1193H175Q166 1193 156 1321T146 1531Q146 1551 165 1564T207 1578Q244 1578 261 1531L256 1525Z" />
<glyph unicode="(" glyph-name="parenleft" horiz-adv-x="418" d="M396 -319Q396 -319 394 -318Q376 -361 338 -361Q284 -361 235 -249T154 24T98 366Q52 711 52 822T67 1053T108 1309T179 1549T273 1651H282L318 1621Q318 1567 285 1500T245 1416Q154 1192 154
900Q154 608 190 330Q230 10 338 -188Q382 -270 396 -319Z" />
<glyph unicode=")" glyph-name="parenright" horiz-adv-x="434" d="M388 817Q388 817 388 815Q388 650 298 196Q258 -2 198 -152T79 -303Q58 -303 42 -290T25 -257T41 -203T82 -126Q176 40 230 329T285 794Q285 1252 165 1475Q120 1559 120 1610V1621L157 1650Q215
1650 262 1542Q308 1433 334 1282Q386 980 388 817Z" />
<glyph unicode="*" glyph-name="asterisk" horiz-adv-x="1051" d="M675 1189L810 1199Q914 1199 914 1137Q914 1085 843 1085Q798 1085 709 1089T576 1094Q582 1078 655 935T728 761T713 715T668 700T619 738T598 821L511 1011Q500 985 474 911Q419 757 377 690H328L284
736L283 745Q286 786 357 927T439 1096Q323 1096 255 1096T177 1097T156 1102Q136 1110 136 1139T149 1182T182 1196H425Q423 1201 402 1242T364 1315Q350 1346 330 1388Q290 1474 290 1498T306 1534T346 1547T400 1489T461 1349T496 1258Q499 1266 512 1311T538
1393T569 1474Q608 1568 649 1567Q671 1567 688 1551T706 1508T684 1423T626 1288T583 1194Q622 1189 675 1189Z" />
<glyph unicode="+" glyph-name="plus" horiz-adv-x="853" d="M468 553L487 389Q487 364 467 349T421 333T375 347T354 385L341 584V599L227 590Q140 590 140 655Q140 676 152 692T186 708L307 701Q333 701 354 705Q354 705 342 855Q342 968 408 968Q431 968 445
951T460 909V884Q460 701 487 701L606 709Q712 709 712 647Q712 623 695 607T654 591L533 602Q468 602 468 553Z" />
<glyph unicode="," glyph-name="comma" horiz-adv-x="451" d="M283 -100T232 -151T142 -202T102 -177T127 -130Q172 -78 193 64Q211 185 273 185Q344 185 344 77Q344 30 314 -35Z" />
<glyph unicode="-" glyph-name="hyphen" horiz-adv-x="731" d="M545 798T566 782T587 740T538 696Q490 678 419 670Q291 656 212 656Q186 656 166 673T145 715T193 758T312 784Q435 798 519 798Q545 798 566 782Z" />
<glyph unicode="." glyph-name="period" horiz-adv-x="445" d="M189 -32T169 -10T148 42T171 96T224 120T276 96T298 41T275 -11T221 -32Z" />
<glyph unicode="/" glyph-name="slash" d="M55 -54Q31 -54 31 -9Q31 8 40 41T215 742T423 1553Q428 1567 442 1567T468 1555T480 1529T459 1403T288 699T75 -31Q70 -54 55 -54Z" />
<glyph unicode="0" glyph-name="zero" horiz-adv-x="660" d="M204 990L225 790Q226 478 270 257Q302 100 365 100Q395 100 418 161Q442 222 452 309Q472 471 472 561T468 735T458 931T435 1139T396 1320Q347 1504 249 1518Q217 1491 207 1465T196 1395L204 990ZM98
1222Q98 1473 186 1537Q222 1563 272 1563Q566 1563 566 521Q566 7 346 7Q184 7 127 508Q98 762 98 1222Z" />
<glyph unicode="1" glyph-name="one" horiz-adv-x="452" d="M241 -8L180 -9Q146 -9 131 1T116 41T125 78T174 86T214 120Q214 321 183 719T152 1308L155 1383Q155 1479 84 1479L37 1477Q-21 1477 -21 1521Q-21 1575 144 1575Q230 1575 249 1541Q237 1485 237 1439T252
1267T268 1030T290 595T312 109V96Q360 102 387 102V103Q474 103 474 52Q474 -8 241 -8Z" />
<glyph unicode="2" glyph-name="two" horiz-adv-x="537" d="M425 4L113 -15Q84 -15 61 2T38 47V55Q81 106 110 189T151 299Q268 558 325 774T382 1241T284 1500Q250 1482 238 1402Q226 1327 177 1327T128 1390Q128 1490 186 1552Q218 1586 260 1586V1587Q366 1587
414 1521Q449 1472 458 1433T471 1371T477 1312Q480 1258 480 1155T444 887T366 608T259 332T167 86Q291 107 409 107Q452 76 452 52T425 4Z" />
<glyph unicode="3" glyph-name="three" horiz-adv-x="476" d="M222 847Q159 847 159 889Q159 921 204 969Q290 1062 290 1150Q290 1229 276 1313Q249 1477 183 1477Q158 1477 142 1459T118 1419T94 1379T51 1360T8 1376T-13 1416Q15 1485 66 1529T177 1573T274
1542T333 1464T369 1354Q392 1250 392 1172T383 1065T364 1021T331 972T300 927Q426 852 463 502Q471 426 471 371T469 281T461 197T440 114Q424 78 402 46Q356 -20 259 -20Q182 -20 145 11T108 69T113 103T139 110T170 98Q215 67 243 64Q368 64 368 294Q368 594
314 728Q287 794 243 849Q237 847 222 847Z" />
<glyph unicode="4" glyph-name="four" horiz-adv-x="554" d="M269 587L288 1160Q288 1181 306 1193T341 1206L373 1170V1072Q373 753 369 596L428 601Q489 601 489 557Q489 507 407 507Q374 507 374 489Q374 420 379 299T395 155Q391 131 391 111T400 76V39Q400
-38 352 -38Q321 -38 304 -6T287 59V66Q298 104 298 140L283 339L285 428Q285 463 281 491L169 480V479Q131 479 89 512Q89 558 98 591Q89 639 89 707T104 917T120 1124V1503Q120 1523 127 1533T158 1543T201 1529T220 1492L211 1333L210 1296Q210 1275 214 1259V1252Q220
1198 220 1127T206 883T191 654T194 576Q229 577 269 587Z" />
<glyph unicode="5" glyph-name="five" horiz-adv-x="429" d="M260 -36L225 -37Q113 -37 113 21Q113 44 132 55T179 67T229 50Q278 67 306 162T335 319T335 415T332 502T326 589T313 668T294 741T264 802Q246 832 224 850Q172 890 102 891Q53 891 39 930Q27 963
27 1008L38 1112Q38 1240 -12 1540L23 1576H190Q275 1576 275 1524V1513L237 1482H186V1488H99Q104 1359 139 1002Q144 1001 178 998Q213 994 227 992Q278 983 305 965Q352 933 383 821Q433 640 433 434Q433 259 423 219T400 142Q388 104 370 78Q328 16 260 -36Z"
/>
<glyph unicode="6" glyph-name="six" horiz-adv-x="562" d="M95 880Q95 1586 315 1586Q331 1586 347 1574T363 1540T339 1500T285 1475Q259 1450 238 1333Q205 1147 196 949Q213 952 228 952Q430 952 466 447Q474 343 474 268T472 163T461 97T434 38Q394 -14 309
-14Q116 -2 95 597V880ZM325 73Q378 73 378 212T360 524Q324 865 240 882Q212 862 204 836T195 773T195 701T197 605T203 490T213 372T229 258Q239 208 252 164Q279 74 325 73Z" />
<glyph unicode="7" glyph-name="seven" horiz-adv-x="467" d="M118 1489Q70 1512 70 1549Q70 1582 258 1582H296Q351 1582 372 1566T400 1523Q363 1341 329 984Q267 332 193 119Q194 114 194 88T172 26T114 -11L75 24Q76 66 92 117Q177 376 233 776T296 1494Q264
1498 240 1498T118 1489Z" />
<glyph unicode="8" glyph-name="eight" horiz-adv-x="531" d="M108 313T156 542T204 846T182 997T134 1135Q64 1300 63 1398Q63 1607 205 1607H248Q314 1567 332 1538T359 1490Q366 1472 370 1440Q376 1390 376 1339T375 1263T371 1211T365 1163T357 1110L348
1062Q336 998 330 974T315 910T304 862Q374 699 420 493T466 119Q466 76 465 72L464 61V60Q401 -82 270 -82Q224 -82 191 -53T140 22Q108 108 108 210ZM261 750Q203 559 203 190V188Q203 136 229 81V71Q231 50 242 28T272 6Q372 6 372 143T343 422T261 750ZM212
1515H191V1516Q163 1485 163 1415T189 1215T240 1007Q285 1166 285 1312Q285 1355 271 1435T234 1516L212 1515Z" />
<glyph unicode="9" glyph-name="nine" horiz-adv-x="563" d="M464 1420L440 237L426 90L427 49Q427 15 411 -9T359 -34L327 4Q359 100 359 686L355 931Q241 957 168 1042T94 1243Q94 1505 206 1587Q243 1614 292 1614Q392 1614 428 1568T464 1420ZM357 1009Q366
1165 366 1427Q366 1474 352 1500T301 1527T244 1493T213 1408Q194 1313 194 1268T196 1203T200 1166T210 1135T221 1110T237 1089T254 1072T277 1056T300 1041T328 1026T357 1009Z" />
<glyph unicode=":" glyph-name="colon" horiz-adv-x="443" d="M179 177T159 199T138 251T161 305T214 329T265 305T287 250T264 198T210 177ZM199 951T179 973T159 1025T182 1078T234 1103T286 1079T308 1024T285 972T231 951Z" />
<glyph unicode=";" glyph-name="semicolon" horiz-adv-x="438" d="M263 74T219 23T139 -28T103 -3T128 44Q153 81 167 163T195 302T244 359Q315 359 315 251Q315 204 289 139ZM219 952T199 974T179 1026T202 1079T254 1104T306 1080T328 1025T305 973T251 952Z" />
<glyph unicode="&lt;" glyph-name="less" horiz-adv-x="524" d="M360 1447L367 1446L412 1411Q394 1277 272 1037Q154 805 154 702Q154 686 293 397T465 49H491Q489 22 476 0T428 -22T344 39T246 198T160 390T85 578T37 698Q38 729 104 912T251 1271T360 1447Z" />
<glyph unicode="=" glyph-name="equal" horiz-adv-x="684" d="M258 770L180 767Q57 767 57 826Q57 847 69 859T103 872H470Q629 872 629 818T413 764Q321 764 267 770H258ZM571 579L139 589Q57 589 57 634Q57 655 69 667T103 680H410Q619 680 619 626Q619 605
606 592T571 579Z" />
<glyph unicode="&gt;" glyph-name="greater" horiz-adv-x="523" d="M126 -19L88 -23Q71 -23 58 -10T45 33T126 223T288 532T369 702Q368 804 278 982Q240 1056 204 1129Q114 1306 112 1411L167 1446V1444Q207 1426 285 1258T424 917T487 698L126 -19Z" />
<glyph unicode="?" glyph-name="question" horiz-adv-x="464" d="M286 70Q286 -8 203 -8Q174 -8 153 15T131 68T156 122T209 148T262 122T286 70ZM121 1203Q63 1204 63 1336Q63 1408 74 1447T118 1517T200 1547T282 1529T334 1484Q352 1458 362 1416Q378 1355
378 1256T358 1051Q340 946 316 867Q254 657 253 366Q253 267 254 229Q218 229 213 226T203 223Q165 223 153 269Q153 495 210 784T268 1260T207 1447Q168 1447 168 1356Q168 1340 182 1245Q182 1236 157 1220T121 1203Z" />
<glyph unicode="@" glyph-name="at" horiz-adv-x="1030" d="M430 -120Q15 -120 15 956Q15 1252 54 1386Q102 1550 187 1622Q301 1718 478 1719Q727 1718 857 1464Q985 1213 985 767Q985 642 974 593T950 511T919 456Q876 406 809 406Q759 406 706 519Q672 425
613 366T487 306Q378 306 326 406Q258 537 258 851Q258 1003 265 1051T280 1139T299 1207T329 1264Q348 1294 370 1311Q423 1351 481 1351T579 1327T646 1265T695 1169T729 1054T752 924T767 796T778 671T788 565V556L817 510Q839 522 852 581Q870 663 870 757T866
922T851 1079T821 1238T771 1382T699 1502Q609 1612 468 1612Q281 1612 205 1468Q144 1352 138 1161Q136 1115 136 1050V930Q136 130 348 -6Q388 -32 452 -32T584 -13T695 33Q738 60 770 86Q848 150 871 150T894 130Q894 106 865 66T781 -16T634 -89T430 -120ZM491
1246Q433 1246 399 1120T365 825T401 533T503 410Q546 410 592 484T638 605V759Q638 881 617 1005Q551 1212 491 1246Z" />
<glyph unicode="A" glyph-name="A" horiz-adv-x="656" d="M527 1Q464 1 464 54V321Q435 341 360 355T225 373Q204 337 191 269T163 132T124 23Q44 23 34 64Q62 104 125 473T228 1050T316 1401T406 1543T472 1525Q472 1452 512 1130T552 714T573 400T595 70Q595
1 527 1ZM423 851T409 1015T394 1214T395 1254Q363 1221 303 887T238 464Q323 441 380 441T462 447Q459 488 441 669Z" />
<glyph unicode="B" glyph-name="B" horiz-adv-x="576" d="M214 1421Q185 1421 185 1348T189 1117T193 888Q246 900 284 976Q315 1040 335 1099T361 1173V1246Q361 1306 317 1363T214 1421ZM305 106T363 184T421 364T404 543T367 660T319 728Q286 762 265 769H192Q202
486 202 90Q305 106 363 184ZM88 538L74 1370V1382Q74 1492 108 1522Q125 1537 151 1537Q297 1537 379 1443T461 1201Q461 1108 412 1008T295 859Q420 775 473 646T527 374Q527 299 490 220T415 94T316 15T182 -17H174Q78 -17 78 34L88 538Z" />
<glyph unicode="C" glyph-name="C" horiz-adv-x="649" d="M176 999L158 856V807Q158 569 168 492T190 354T218 250T260 169Q308 93 393 93Q428 93 480 129T559 166T617 135Q617 32 500 -12Q442 -33 374 -33T258 -6T178 65T122 177T84 312Q72 380 64 468Q52 616
51 792L53 1037Q53 1154 67 1226Q61 1259 61 1290Q61 1416 155 1490T387 1565Q436 1565 483 1538T530 1465Q530 1443 513 1431T456 1419T400 1444V1443H372V1448Q253 1448 210 1374Q170 1306 170 1140L176 999Z" />
<glyph unicode="D" glyph-name="D" horiz-adv-x="653" d="M211 310Q211 310 211 114Q288 164 345 253T432 449Q488 652 488 854Q488 1086 430 1220Q371 1358 284 1402Q230 1430 162 1429V1427Q162 1242 186 870T211 310ZM588 754L593 711Q594 566 516 369Q428
144 308 50Q240 -4 168 -5Q130 -5 99 12T68 65Q113 112 113 306Q113 420 94 645T75 982L81 1206Q81 1260 59 1351T36 1481Q36 1552 193 1552H224Q433 1552 527 1318Q593 1155 593 868V773Q588 764 588 754Z" />
<glyph unicode="E" glyph-name="E" horiz-adv-x="457" d="M293 750L242 752Q212 752 200 737V105Q305 111 314 111Q431 111 431 57V50Q417 22 383 7T323 -10T256 -12H192Q116 -12 98 18Q90 32 90 55V1245Q90 1280 76 1349T62 1454V1461Q96 1517 113 1533L265 1551Q296
1551 327 1533T359 1484Q359 1423 266 1423L207 1425Q192 1425 185 1424L201 1086Q201 1045 196 967T191 852Q202 854 221 859Q263 870 286 870T328 853T347 812T332 769T293 750Z" />
<glyph unicode="F" glyph-name="F" horiz-adv-x="391" d="M230 94L225 81Q229 69 229 50T210 14T160 -2Q101 -2 101 129Q101 324 81 866T39 1440Q40 1546 184 1553Q206 1554 243 1554T302 1540T324 1483T267 1440L217 1442Q160 1442 160 1419Q160 1324 175 1141T191
869Q204 871 226 877Q278 891 303 891T344 872T361 828Q361 761 191 761Q191 650 210 428T230 94Z" />
<glyph unicode="G" glyph-name="G" horiz-adv-x="727" d="M525 371L445 363Q375 363 375 421Q375 471 507 486Q533 489 564 489T617 457T639 372T659 197T680 34Q680 -41 630 -41T562 2V4Q550 -1 517 -19Q455 -53 394 -53Q350 -53 306 -35Q212 2 162 90Q108 183
91 268T68 402Q61 452 57 516Q52 597 52 711L51 862Q51 1060 64 1146T90 1287T122 1384T166 1467Q192 1508 226 1534Q299 1592 393 1592T487 1533Q487 1511 471 1498T433 1485L374 1495Q297 1494 253 1402Q206 1301 193 1210T174 1063Q166 1008 164 938Q160 841
161 744L160 617Q160 421 177 338T214 206Q232 156 258 124Q343 59 407 51Q498 51 558 137Q555 319 525 371Z" />
<glyph unicode="H" glyph-name="H" horiz-adv-x="560" d="M440 -31Q388 -31 388 37Q388 427 370 759Q315 769 267 769T181 753Q181 639 198 408T215 59Q215 39 203 22T171 5Q115 4 89 356Q54 833 54 1510Q54 1547 89 1547Q108 1547 130 1537T161 1514Q154 1441
154 1360L168 939L166 862Q166 833 170 809L369 824L361 1496V1550Q439 1550 454 1480Q461 1446 461 1307T480 718T500 43Q500 16 483 -7T440 -31Z" />
<glyph unicode="I" glyph-name="I" horiz-adv-x="432" d="M301 1442L265 1443Q245 1443 236 1435T226 1401Q226 1201 251 802T276 203V124Q297 127 318 127Q403 127 403 55V43L352 8L213 3Q36 3 36 64Q36 113 98 113L141 110Q171 110 171 158Q171 316 152 631T133
1105L137 1314Q137 1380 132 1428Q105 1419 84 1419Q36 1419 36 1468Q36 1493 67 1511T144 1538Q230 1553 271 1553T331 1537T349 1498T336 1459T301 1442Z" />
<glyph unicode="J" glyph-name="J" horiz-adv-x="419" d="M217 241L218 525Q218 1119 164 1445Q157 1444 137 1439Q97 1429 76 1429T39 1444T23 1481Q23 1553 268 1553H294Q386 1553 386 1499T301 1444L295 1445H267V1429Q267 1376 279 1271T291 1072T309 714T328
315L327 152Q327 31 277 -64T129 -194Q97 -194 76 -178T55 -134T80 -83T135 -48Q163 -12 190 68T217 241Z" />
<glyph unicode="K" glyph-name="K" horiz-adv-x="650" d="M97 660L100 1049Q100 1151 85 1285T70 1460T86 1521T128 1541Q204 1541 204 1375Q204 1374 195 954Q202 971 234 1054T300 1221Q335 1304 374 1394Q462 1596 502 1596Q525 1596 542 1581T560 1544T449
1288T323 991V955Q353 879 486 458T620 12T600 -31T555 -48L507 -40Q456 251 401 467T257 880Q196 771 193 748Q187 686 187 650L200 270V102Q200 -7 130 -7Q70 -7 70 96T83 384T97 660Z" />
<glyph unicode="L" glyph-name="L" horiz-adv-x="430" d="M191 775L193 710V701Q201 523 201 167V115H357Q401 85 401 58T386 14T355 -4T318 3Q301 -1 279 -1L213 2Q192 -23 161 -23T108 -4T86 42L99 132Q99 365 79 830T58 1529Q58 1548 73 1559T110 1571T151
1554T170 1512L191 775Z" />
<glyph unicode="M" glyph-name="M" horiz-adv-x="824" d="M83 464L76 1257Q76 1390 79 1522L136 1554Q197 1550 275 1228Q338 965 377 756T420 528Q434 594 472 764T529 1028Q585 1303 598 1517V1529Q602 1555 623 1571T667 1587T704 1571T719 1535Q719 1290 737
801T756 67Q756 18 730 -18T680 -54Q630 -54 630 27L622 889V993Q608 914 559 717T496 414V401Q494 393 490 363T482 314T468 270Q449 222 405 222Q332 222 332 413Q332 602 240 942Q194 1112 181 1172Q177 1008 177 925L194 83Q194 39 163 6Q110 6 92 40T73 132L83
464Z" />
<glyph unicode="N" glyph-name="N" horiz-adv-x="737" d="M67 1073L81 1449V1462Q81 1564 126 1564Q167 1564 236 1374Q362 1029 538 235L540 225L548 939V1545Q560 1596 615 1596T670 1516V1504Q658 1479 658 1444L645 687V61Q645 30 628 0T586 -30Q543 -30 418
391T171 1298V626Q171 528 185 334T200 42Q200 23 177 11T119 -2T83 30L93 177Q93 283 80 521T67 812V1073Z" />
<glyph unicode="O" glyph-name="O" horiz-adv-x="650" d="M582 618L564 359V350Q551 293 551 227T528 100T458 -9T355 -57T253 -19T177 78T124 220T89 381T68 547Q56 680 56 753T56 879T54 974Q54 995 54 1020T54 1075Q55 1134 57 1181T66 1282T83 1378T110 1460Q128
1501 150 1527Q200 1585 265 1585T376 1562T453 1486T508 1385T545 1249T567 1107Q575 1052 578 950Q582 813 582 736V618ZM380 1420T350 1448T289 1477T240 1456T207 1397T183 1314T167 1213T157 1108Q154 1062 152 1006Q150 913 149 861V852Q149 715 170 557T213
297T274 126T359 55Q400 55 428 132Q456 210 468 324Q488 528 488 610T489 731T486 841T477 977T462 1118T437 1255T401 1367Z" />
<glyph unicode="P" glyph-name="P" horiz-adv-x="495" d="M86 58L96 789Q96 1271 43 1520Q75 1566 122 1566Q198 1566 260 1532T362 1442Q443 1325 443 1175T378 903T187 712Q187 712 203 74Q203 -11 135 -11Q110 -11 98 10T86 58ZM182 811Q338 957 338 1158V1159Q338
1274 310 1320Q296 1342 288 1354T253 1388Q222 1413 158 1459Q158 1351 170 1135T182 811Z" />
<glyph unicode="Q" glyph-name="Q" horiz-adv-x="676" d="M481 831Q482 872 482 911Q482 1474 273 1474Q236 1474 210 1368Q184 1263 174 1104Q156 839 156 725T159 565T167 451T186 322T219 208T272 118T348 80V82Q363 108 404 108V107Q481 178 481 327V831ZM64
1052Q64 1576 290 1576Q404 1576 470 1494Q534 1412 560 1288Q588 1149 590 1050Q592 951 594 883Q595 849 595 816Q594 784 594 752Q592 688 593 659V567Q593 394 571 289T467 70Q469 62 474 29T486 -34T502 -96Q523 -169 554 -169H562Q626 -169 638 -185T650
-219Q650 -282 559 -282Q524 -282 474 -253V-252Q418 -226 396 -161Q379 -110 372 -54T360 20H276Q81 150 60 446Q56 502 56 574L66 908L64 1052Z" />
<glyph unicode="R" glyph-name="R" horiz-adv-x="548" d="M78 60L86 1261V1513Q86 1537 96 1547T148 1557T234 1537T308 1482Q337 1446 358 1402Q398 1317 398 1217T348 988Q342 974 324 929T303 876Q304 724 380 481Q406 399 454 257T514 76V71Q514 2 498 -9T464
-21Q426 -21 390 34V41Q380 227 262 604Q208 776 187 859V52Q187 21 176 4T136 -13T93 3T78 44V60ZM191 1463L180 1045Q180 982 182 951Q217 984 251 1030L283 1207Q286 1221 286 1239Q286 1288 266 1358Q238 1454 191 1463Z" />
<glyph unicode="S" glyph-name="S" horiz-adv-x="523" d="M38 24Q38 79 84 79Q107 79 144 64T209 48T269 83T319 170Q356 276 356 361T326 545T253 729T166 901Q62 1106 63 1275Q62 1435 164 1526Q218 1574 291 1574Q328 1574 363 1554T412 1500L377 1456Q326
1456 297 1476Q259 1472 231 1440Q180 1381 180 1295T202 1126T257 979T328 838Q367 762 400 692Q477 530 477 342Q478 210 410 88Q378 30 322 -7T197 -45Q123 -45 81 -23T38 24Z" />
<glyph unicode="T" glyph-name="T" horiz-adv-x="492" d="M321 1189L317 925L335 454L352 86Q352 -14 293 -14Q259 -14 243 18T227 89L243 416Q243 522 229 735T215 1054L218 1233Q218 1380 199 1424L88 1413Q62 1413 42 1428T21 1468T70 1510Q120 1528 190 1536Q313
1550 397 1550Q422 1550 442 1534T463 1492T445 1453T401 1438L328 1442Q314 1442 307 1441Q321 1323 321 1189Z" />
<glyph unicode="U" glyph-name="U" horiz-adv-x="699" d="M52 1115L54 1435Q39 1452 39 1477T56 1521T98 1540Q172 1540 172 1394L191 682Q203 655 211 573T220 446T234 334T274 199T343 83T426 35T484 53T510 106Q521 160 521 219V619Q521 684 508 812T495 1005V1019L491
1138L476 1489Q476 1514 501 1529T553 1545L603 1497V1463L588 1338Q588 1167 606 823T625 358T622 196T606 109T573 33Q524 -37 423 -37Q298 -38 222 72Q142 188 110 350Q72 541 64 685Q52 902 52 1115Z" />
<glyph unicode="V" glyph-name="V" horiz-adv-x="620" d="M88 1563Q144 1563 277 702Q329 365 334 339Q348 454 384 708Q460 1232 459 1528Q491 1569 534 1569L577 1546Q572 1511 555 1347T523 1053T494 808T464 564T432 333T402 145Q370 -34 350 -34Q321 -34
302 -12Q252 194 156 787T31 1523Q43 1563 88 1563Z" />
<glyph unicode="W" glyph-name="W" horiz-adv-x="901" d="M697 43Q697 12 682 -8T636 -28Q562 -28 450 759Q434 875 430 893Q392 620 372 422T352 28Q352 6 334 -11T293 -29Q218 -29 218 127Q218 223 134 828T26 1491Q52 1540 99 1540T184 1327T250 811T279 503Q282
531 299 675T327 908Q357 1174 357 1286V1325Q357 1347 373 1367T411 1388Q484 1388 484 1328V1297Q484 1099 576 724Q616 560 633 461Q644 574 673 788Q736 1254 736 1506Q736 1551 751 1571T800 1592T853 1576T873 1535T852 1489Q852 1191 775 767T697 43Z" />
<glyph unicode="X" glyph-name="X" horiz-adv-x="520" d="M410 24Q350 24 350 73Q350 179 332 262T294 427T267 538Q262 517 250 444T224 300Q210 228 192 154Q151 -12 93 -13Q73 -13 56 0T38 33Q38 111 81 263T167 572T210 812T190 986Q168 1080 144 1152Q78
1346 79 1473V1478Q98 1520 127 1520T177 1485T214 1391T241 1279T262 1163T276 1087Q280 1097 302 1229Q357 1550 418 1550Q441 1550 460 1538T479 1491T403 1161T326 796Q326 772 378 516T432 248V236Q434 211 450 160T466 84T449 41T410 24Z" />
<glyph unicode="Y" glyph-name="Y" horiz-adv-x="453" d="M212 25L222 421Q222 481 203 598T183 787T159 961T104 1146Q25 1361 25 1513Q25 1528 42 1538T79 1549T119 1502T159 1382T192 1236T221 1095T240 1006Q244 1024 249 1091T262 1230Q270 1302 282 1374Q309
1539 363 1539T418 1517Q418 1402 369 1174T320 828L314 757V726L325 183L332 81V35Q332 8 312 -8T267 -25T228 -11T212 25Z" />
<glyph unicode="Z" glyph-name="Z" horiz-adv-x="429" d="M139 1543L332 1564Q356 1564 372 1547T388 1505Q388 969 161 85L269 93Q377 93 377 30V21L345 -11L92 -19Q53 -19 34 31Q81 106 139 420T235 1028T281 1451Q211 1441 164 1441Q53 1441 53 1506V1515L81
1549V1550Q108 1543 139 1543Z" />
<glyph unicode="[" glyph-name="bracketleft" horiz-adv-x="467" d="M385 1465L270 1478Q232 1478 232 1458Q232 1220 192 747T152 48V6H173Q355 6 355 -68Q355 -112 289 -112Q42 -112 42 -35Q42 49 63 217T85 512T111 975T138 1480Q138 1480 136 1519Q136 1542
144 1554T177 1577H255Q373 1576 419 1546Q441 1532 441 1511T424 1478T385 1465Z" />
<glyph unicode="\" glyph-name="backslash" horiz-adv-x="511" d="M389 550T433 311T477 35T431 -30V-31Q397 -31 352 89T264 397T184 763T116 1112T78 1308Q74 1333 62 1372Q36 1458 36 1492T52 1541T91 1555Q132 1555 201 1331T329 829Z" />
<glyph unicode="]" glyph-name="bracketright" horiz-adv-x="472" d="M225 1577L267 1578Q307 1578 321 1561T336 1431T364 995T392 545T412 237T433 -35Q433 -112 185 -112Q118 -112 118 -68Q118 6 300 6H321V48Q315 252 278 726T240 1458V1476L106 1465Q32 1465
32 1511Q32 1577 225 1577Z" />
<glyph unicode="^" glyph-name="asciicircum" horiz-adv-x="280" d="M116 1515T95 1530T73 1576T89 1631T136 1656T188 1635T210 1584T192 1535T145 1515Z" />
<glyph unicode="_" glyph-name="underscore" horiz-adv-x="844" d="M703 0L800 2Q850 2 850 -36Q850 -53 834 -67T776 -82T705 -84L73 -94Q41 -94 18 -80T-6 -48T8 -15T44 0H703Z" />
<glyph unicode="`" glyph-name="grave" horiz-adv-x="506" d="M48 1695T69 1723T113 1752T288 1668T441 1557Q441 1543 417 1543T220 1598T48 1672Q48 1695 69 1723Z" />
<glyph unicode="a" glyph-name="a" horiz-adv-x="621" d="M411 375Q405 405 405 479T397 664T372 921T350 1134Q257 619 230 408Q265 385 411 375ZM518 416L540 290Q540 265 559 168T579 41V39Q579 -6 545 -19Q502 -19 478 -5T454 49Q454 136 424 302L222 332Q203
264 193 183T174 65Q156 -11 107 -11Q83 -11 63 4T42 44L47 62Q185 595 252 1100Q254 1114 258 1182Q268 1332 296 1373H365Q393 1373 414 1360T435 1321Q435 1165 476 858T518 416Z" />
<glyph unicode="b" glyph-name="b" horiz-adv-x="491" d="M194 1068Q194 1068 194 763Q302 766 302 1022T218 1288Q194 1236 194 1068ZM181 186L183 176V84Q252 100 286 165T321 287T320 377T310 458Q302 506 290 542Q260 630 197 643Q188 511 188 333L181 186ZM94
1173L83 1279V1290Q83 1333 96 1358T165 1383T274 1354T358 1274Q419 1174 419 1046T400 844T336 705Q416 628 428 452Q430 412 430 356T421 246T388 143Q364 94 330 58Q255 -20 129 -20Q86 -20 74 18Q66 47 65 88L85 524L94 1173Z" />
<glyph unicode="c" glyph-name="c" horiz-adv-x="505" d="M47 495L46 615V664Q46 966 76 1084Q112 1230 176 1286Q263 1364 396 1364Q428 1364 443 1349T459 1313T447 1276T415 1258H319Q277 1258 246 1204Q216 1150 202 1072Q176 924 177 827V817L168 422Q168
297 181 249T209 172T244 123Q290 79 362 79Q386 79 406 97Q430 97 449 86T468 52Q468 -29 355 -29Q309 -29 259 -16T183 14Q47 102 47 495Z" />
<glyph unicode="d" glyph-name="d" horiz-adv-x="610" d="M73 256L79 901Q79 967 67 1102T55 1275T78 1332T127 1353Q338 1353 470 1106Q546 965 546 808L542 705V592Q542 386 524 317T485 202T437 120Q372 38 273 -12H125Q73 -12 73 256ZM216 141V92Q394 92 430
452Q438 535 438 612Q438 1230 200 1258Q185 1177 185 1036T200 593T216 141Z" />
<glyph unicode="e" glyph-name="e" horiz-adv-x="455" d="M86 1034L75 1207Q75 1352 161 1352Q216 1352 311 1327T406 1261Q406 1219 346 1197Q251 1229 191 1236Q194 1192 194 1148L185 854Q185 852 191 822L264 825Q363 825 363 769Q363 747 345 731T300 714T240
718H188Q194 640 194 563Q194 563 185 192Q185 77 189 77L340 82Q418 82 418 32Q418 1 391 -13T330 -27H157Q130 -27 108 -9T85 36V90L72 436L86 1034Z" />
<glyph unicode="f" glyph-name="f" horiz-adv-x="483" d="M220 1219L201 808V753L239 754Q338 754 338 700Q338 673 316 657T259 640T185 652V72Q185 -18 132 -18Q100 -18 59 13Q76 196 84 533T99 975V1025Q107 1174 107 1303Q107 1332 131 1348T186 1364T252
1362Q288 1360 339 1352Q455 1335 455 1281Q455 1223 351 1223Q310 1243 244 1243H220V1219Z" />
<glyph unicode="g" glyph-name="g" horiz-adv-x="638" d="M563 411L573 194Q573 93 503 39T338 -16Q196 -16 132 90Q86 165 74 231T57 334T50 431Q46 516 46 568V656Q46 945 63 1021T102 1164T156 1266Q233 1354 334 1354T435 1302Q435 1278 415 1263T370 1247L327
1252Q256 1252 220 1112Q168 912 168 629Q168 436 180 364T208 242Q222 192 242 162Q289 91 363 91Q462 91 462 417V511Q447 519 414 519L374 518Q303 518 303 565Q303 594 323 609T373 624V623H401Q585 623 585 560L563 411Z" />
<glyph unicode="h" glyph-name="h" horiz-adv-x="571" d="M191 1233L183 722Q220 712 295 712H369Q374 721 374 778T361 1028T347 1320Q347 1343 365 1358T399 1374T425 1371T447 1363T466 1356Q466 1090 485 579T505 50T484 17T436 0T393 39T372 154T364 287Q363
311 364 342Q364 384 365 438Q367 533 367 548V556L370 615L358 634V636Q341 632 321 632L189 651V416L201 79Q201 50 186 28T143 5Q102 5 87 79T71 283L77 595Q77 692 74 702V712Q82 819 82 832L68 1294Q68 1318 85 1336T126 1355Q191 1355 191 1233Z" />
<glyph unicode="i" glyph-name="i" horiz-adv-x="499" d="M286 681L296 246V185L295 128H322Q322 128 381 130Q465 130 465 79Q465 53 445 35T397 16H307Q214 16 188 20Q172 18 163 18Q90 18 90 64Q90 83 102 100T126 118H184L188 145L174 580L185 1036Q185 1153
175 1256H136L89 1254Q59 1254 42 1265T25 1309Q25 1356 126 1356H370Q453 1356 453 1313Q453 1294 435 1278T394 1262H289Q297 1178 297 1072L286 681Z" />
<glyph unicode="j" glyph-name="j" horiz-adv-x="520" d="M331 1245L352 382V164Q352 62 336 17T305 -59T266 -112T212 -154Q149 -193 41 -193Q17 -193 17 -168L19 -134Q19 -122 48 -112Q154 -75 181 -46Q240 18 240 187L217 1233V1242Q139 1242 106 1255T66 1276T60
1297T83 1325T157 1339T350 1327T492 1293T476 1258T436 1245H331Z" />
<glyph unicode="k" glyph-name="k" horiz-adv-x="637" d="M352 919L348 797Q348 709 418 468T536 149Q542 140 562 112T592 63T602 19T585 -19T544 -35Q496 -35 444 66T352 315Q283 566 250 752Q176 605 176 396V17Q176 -31 134 -31Q103 -31 85 -14T66 34V656Q66
767 85 987T105 1318Q123 1357 157 1357T210 1339T229 1294V1288Q202 1241 202 915V842Q205 847 277 992Q452 1344 493 1344Q523 1344 547 1330T572 1289Q572 1287 523 1207Q372 960 352 919Z" />
<glyph unicode="l" glyph-name="l" horiz-adv-x="467" d="M190 1148L196 656Q184 628 184 586V545L176 219Q176 78 245 78L330 81Q440 81 440 21Q440 -1 421 -15T378 -33Q303 -9 195 -9Q162 -28 132 -28T84 -7T67 39Q67 191 80 496T93 954V969Q81 1097 81 1161Q81
1355 152 1355Q173 1355 188 1340T204 1304L190 1148Z" />
<glyph unicode="m" glyph-name="m" horiz-adv-x="1013" d="M824 21L825 283Q825 374 810 550T795 787T799 932T803 1059Q794 1032 734 776Q578 114 511 114Q471 114 449 138T426 202Q426 299 350 601T220 1065Q181 343 181 89Q181 89 184 28Q184 -5 170 -22T126
-40T77 -26T58 9Q58 218 89 635T121 1261Q109 1280 109 1303T134 1339T188 1351Q232 1351 362 940T522 370Q531 400 559 521T620 774Q652 906 690 1040Q776 1348 836 1348Q863 1348 887 1333T911 1292Q911 1144 924 850T937 423L932 207V206Q932 183 944 60L948
20Q957 -2 957 -26T938 -79T888 -107Q824 -107 824 21Z" />
<glyph unicode="n" glyph-name="n" horiz-adv-x="827" d="M64 829L76 1211Q76 1306 151 1362V1349Q159 1354 166 1354Q214 1354 286 1189T416 825T531 426T603 189Q644 618 644 1228L641 1283Q641 1344 692 1344Q721 1344 735 1320T750 1264V1109Q748 868 729
466T676 11Q620 -6 599 -6T566 8T547 53T535 93L536 102Q536 178 389 585T176 1145V114Q178 110 184 100Q197 78 197 59T179 21T135 2Q68 2 68 127L64 829Z" />
<glyph unicode="o" glyph-name="o" horiz-adv-x="651" d="M51 626L53 704Q53 714 50 714V751Q50 1073 87 1209Q118 1324 147 1351T204 1378Q442 1378 532 1138Q584 1000 584 798V783L588 551Q588 -38 315 -38Q202 -38 142 87Q85 207 72 323Q51 498 51 626ZM172
906L162 717Q162 420 210 199Q261 70 307 47Q344 47 374 77T421 157T451 264Q462 319 468 382Q478 491 478 568T465 804T451 1041V1077Q449 1152 402 1210T282 1269Q212 1269 189 1190Q170 1124 170 1027L172 906Z" />
<glyph unicode="p" glyph-name="p" horiz-adv-x="483" d="M84 885L87 1080Q87 1205 71 1270Q85 1342 126 1342H216Q334 1342 382 1244Q424 1157 424 1044Q424 901 417 869T402 807T383 760T353 721T312 684Q261 651 189 628V409L205 21Q205 -4 184 -21T136 -39L93
-14Q68 99 68 287L76 652Q64 679 64 702V709Q84 749 84 885ZM186 1115L190 716V713Q312 729 312 1059Q312 1156 288 1191Q262 1228 208 1228Q208 1231 186 1231V1115Z" />
<glyph unicode="q" glyph-name="q" horiz-adv-x="644" d="M502 -434Q502 -434 502 -432Q387 -432 344 -385Q344 -332 340 -299T333 -248T326 -199T318 -155T308 -107T299 -62Q174 -36 116 80Q78 158 68 229T54 342Q51 386 50 446Q49 486 49 518Q50 534 50 548Q50
590 51 653T52 760T54 852T64 978T87 1118T127 1241T191 1335T283 1369Q299 1362 330 1355T392 1335T458 1288T515 1208T551 1115T572 1010Q582 912 582 839T582 727T579 615T572 482T558 346T536 211T504 95Q466 -21 399 -49Q399 -116 424 -207T455 -326Q550 -326
550 -384Q550 -405 537 -419T502 -434ZM271 1288Q237 1288 211 1210Q186 1134 174 1024Q152 810 152 737T151 637T153 546T159 431T169 313T186 196T211 100Q240 6 293 6Q322 18 353 18Q389 18 431 225T473 511V869Q473 1288 271 1288Z" />
<glyph unicode="r" glyph-name="r" horiz-adv-x="504" d="M174 1289L167 1260Q167 1176 171 1018T175 787Q223 812 252 917T282 1079T279 1161T266 1220Q246 1286 174 1289ZM166 686L164 464Q164 193 203 37L180 -18H123L96 12Q98 104 98 218T81 708T63 1268Q63
1365 131 1365Q238 1365 311 1309T384 1149V1005Q384 946 362 898T311 796T279 736Q290 686 318 540Q378 221 451 81Q472 41 472 19T460 -19T426 -35Q383 -35 344 63T280 282Q207 649 191 686H166Z" />
<glyph unicode="s" glyph-name="s" horiz-adv-x="445" d="M72 86L157 71Q196 71 225 105T268 190Q295 288 295 363T270 513T209 650T136 780Q50 936 50 1086Q50 1178 81 1249Q139 1381 235 1381Q271 1381 303 1358T336 1308Q336 1261 286 1261Q264 1261 243 1273Q178
1270 155 1128Q150 1097 150 1056T168 953T213 845T272 740T332 628Q396 503 395 342Q396 218 338 105Q310 49 259 14T141 -23V-28Q57 -16 49 51L72 86Z" />
<glyph unicode="t" glyph-name="t" horiz-adv-x="493" d="M257 33L253 190Q253 191 256 260Q248 286 224 722T197 1255Q193 1255 189 1255Q23 1258 23 1316Q23 1335 45 1347T88 1360Q88 1360 366 1341L399 1342Q463 1342 463 1293Q463 1268 442 1253T395 1237L301
1251L297 1230Q297 1036 331 649T365 67Q365 43 343 25T295 6L257 33Z" />
<glyph unicode="u" glyph-name="u" horiz-adv-x="641" d="M560 913L562 878Q562 -31 298 -31Q196 -32 147 52Q96 138 85 223Q68 354 66 523T63 1013L54 1306Q73 1349 97 1349T141 1312T160 1232V675Q160 602 174 458T189 241Q189 91 319 91Q465 91 465 1192V1307L464
1341Q464 1365 475 1377T513 1389T555 1380Q568 1372 574 1356Q582 1331 583 1290L569 1084L560 913Z" />
<glyph unicode="v" glyph-name="v" horiz-adv-x="666" d="M343 247Q388 473 453 900T531 1396H577Q595 1396 609 1383T624 1351Q624 1236 575 1062T518 837T500 673T479 451T447 229T391 46T304 -24L266 7Q266 256 219 515T126 950T64 1173Q28 1284 28 1311T43
1352T78 1366Q135 1366 187 1170Q239 973 265 802T304 539T328 357T343 247Z" />
<glyph unicode="w" glyph-name="w" horiz-adv-x="802" d="M634 1327Q634 1377 691 1377T749 1329Q749 1264 744 1245V1234Q716 1149 716 1046V896Q716 768 685 511T653 139Q653 -69 574 -69Q515 -69 515 18T509 195T490 391T466 567T436 766T409 942Q402 874 402
805T387 545T333 155T245 -43Q166 -42 126 386Q108 570 94 756Q58 1232 31 1293Q48 1329 90 1329Q156 1329 156 1181T199 728T247 283Q334 876 334 1186L389 1210Q414 1210 432 1197T450 1160V1143Q508 946 542 572Q558 401 572 307Q610 591 610 984Q610 1036 625
1138T641 1292Q634 1310 634 1327Z" />
<glyph unicode="x" glyph-name="x" horiz-adv-x="471" d="M268 1158L267 1225Q267 1279 285 1310T359 1357L397 1309Q366 1262 364 1218T362 1133V1109Q338 1044 311 881T284 646T321 451T395 216T432 68T416 18T380 3T344 22T314 74T290 146T269 230T253 312T240
384T231 433Q226 403 213 280T179 93Q180 86 180 69Q180 -7 127 -7Q104 -7 85 5T65 40Q65 129 94 239T152 460T181 644T130 951T54 1219V1241Q35 1260 35 1286Q35 1334 96 1334Q138 1334 172 1202Q202 1086 216 997T234 894Q236 907 243 944T253 1000T260 1050Q268
1112 268 1158Z" />
<glyph unicode="y" glyph-name="y" horiz-adv-x="513" d="M355 109Q355 -28 288 -28Q251 -28 231 17Q254 62 254 364Q254 419 243 520T230 664V717Q226 726 166 879Q30 1222 30 1288V1299L76 1333Q139 1332 226 1016Q264 878 264 877Q272 900 296 1030Q357 1362
424 1362Q443 1362 458 1350T474 1319Q474 1217 416 1023T355 726V109Z" />
<glyph unicode="z" glyph-name="z" horiz-adv-x="493" d="M290 12L169 18Q156 18 133 7T93 -4T58 9T41 57Q41 240 179 695T344 1256L177 1244Q155 1244 140 1261T124 1301Q124 1359 349 1359Q450 1359 450 1302Q450 1230 406 1107T353 933Q327 770 246 458T157
105H192L278 111V112Q361 112 361 62Q361 37 339 25T290 12Z" />
<glyph unicode="{" glyph-name="braceleft" horiz-adv-x="649" d="M428 39L549 62Q557 62 561 45T566 10T542 -24Q504 -48 443 -48Q327 -48 284 14T240 198V621Q240 707 190 717Q170 722 150 722Q101 723 101 766Q101 814 150 816Q170 818 190 822Q240 833 240
916L230 1130Q230 1204 243 1226Q238 1256 238 1280Q238 1374 291 1434T443 1495Q508 1495 547 1476T586 1435T569 1401T529 1389L428 1408Q330 1408 330 1157L338 947Q338 815 302 768Q336 726 336 622V182Q336 39 428 39Z" />
<glyph unicode="|" glyph-name="bar" horiz-adv-x="467" d="M242 1533L246 379V-29Q246 -50 231 -65T194 -80Q143 -80 143 114L129 1510Q129 1584 200 1584Q218 1584 230 1568T242 1533Z" />
<glyph unicode="}" glyph-name="braceright" horiz-adv-x="649" d="M259 1408L138 1385Q130 1385 126 1402T121 1438Q121 1454 145 1470Q183 1494 244 1495Q358 1495 401 1432T446 1249L447 876Q447 790 493 780Q512 776 530 774Q576 772 576 731Q576 683 530
681Q510 680 492 676Q446 666 447 581L455 330Q455 239 444 221Q448 196 448 166Q448 72 396 12T244 -48Q179 -48 140 -29T101 12T118 46T158 58L259 39Q357 39 357 289L347 534Q347 681 385 729Q348 776 348 875L358 1127Q358 1408 259 1408Z" />
<glyph unicode="~" glyph-name="asciitilde" horiz-adv-x="675" d="M547 1197T558 1210T595 1223T639 1207T656 1170Q656 1117 617 1078T524 1038Q334 1038 253 1080Q168 1124 136 1125Q107 1114 112 1086T83 1046Q52 1046 31 1061T9 1115T49 1189T148 1224T334
1183T490 1141T530 1154T544 1182Z" />
</font>
</defs>
</svg>
